<svg xmlns="http://www.w3.org/2000/svg" xml:space="preserve" width="655.359" height="655.359" style="shape-rendering:geometricPrecision;text-rendering:geometricPrecision;image-rendering:optimizeQuality;fill-rule:evenodd;clip-rule:evenodd" viewBox="0 0 6.827 6.827"><defs><clipPath id="id0"><path d="M3.413 0a3.413 3.413 0 1 1 0 6.827 3.413 3.413 0 0 1 0-6.827z"/></clipPath><style>.fil2{fill:none}.fil4{fill:#558b2f}.fil3{fill:#689f38}.fil1{fill:#c0ca33}</style></defs><g id="Layer_x0020_1"><path d="M3.413 0a3.413 3.413 0 1 1 0 6.827 3.413 3.413 0 0 1 0-6.827z" style="fill:#dce775"/><g style="clip-path:url(#id0)"><g id="_457194440"><path id="_4607650721" class="fil1" d="M3.314 3.328 7.1 7.114l-.005-.004-.005-.005-.005-.004-.005-.005-.005-.004-.005-.005-.005-.004-.005-.005-.005-.005-.005-.004-.005-.005-.005-.004-.005-.005-.005-.004-.005-.005-.005-.005-.005-.004-.005-.005-.005-.004L7 7.023l-.005-.004-.005-.005-.005-.004-.005-.005L6.976 7l-.005-.004-.005-.005-.005-.004-.005-.005-.005-.004-.005-.005-.005-.004-3.786-3.786.005.004.005.005.005.004.005.005.004.004.005.005.005.004.005.005.005.004.005.005.005.004.005.005.005.004.005.005.005.005.005.004.005.005.005.004.004.005.005.004.005.005.005.005.005.004.005.005.006.004.005.005.005.004.005.005.005.005.005.004.005.005z"/><path id="_460764880" class="fil1" d="m3.155 3.183 3.786 3.786-.003.005-.003.006-.003.005-.003.006-.004.005-.003.005-.003.006-.004.005-.004.005-.003.005-.004.005-.004.005-.004.005-.004.005-.004.005-.004.005-3.786-3.787.004-.005.004-.004.004-.005.004-.005.004-.005.003-.005.004-.005.004-.005.003-.006.004-.005.003-.005.003-.005.004-.006.003-.005.003-.006z"/><path id="_460764448" class="fil1" d="m3.098 3.265 3.786 3.786-.015.016-.015.015-.016.014-.017.013-.018.013-.02.011-.019.011-.02.01-.021.009-.022.007-.022.007-.024.005-.024.005-.025.003-.025.002h-.054L6.5 7.19l-.028-.003-.03-.005-.03-.006-.03-.008-.031-.009-.032-.01-.033-.013-.033-.014-.034-.015-.034-.018-.035-.019-.036-.02-.036-.024-.037-.024-3.787-3.786.037.024.037.023.035.02.036.02.034.017.034.016.033.014.033.012.032.011.03.01.031.007.03.006.03.005.028.003.028.002h.053l.026-.002.025-.003.024-.005.023-.005.023-.007.022-.008.02-.008.021-.01.02-.01.018-.012.018-.013.017-.013.017-.014.015-.015z"/><path id="_460764808" class="fil1" d="m3.068 2.609 3.786 3.786.016.017.014.017.014.018.013.018.011.019.011.019.01.019.01.019.008.02.007.02.007.02.005.02.005.02.004.02.003.02.002.02.001.02.001.02v.021l-.001.02-.002.02-.003.02-.003.02-.005.019-.005.019-.006.019-.006.018-3.787-3.786.007-.019.006-.018.005-.02.004-.019.004-.02.002-.02.002-.02.001-.02v-.04l-.001-.02-.002-.02-.003-.02-.004-.02-.005-.021-.006-.02-.006-.02-.008-.02-.008-.02-.009-.019-.01-.019-.01-.018-.013-.019-.012-.018-.014-.018-.015-.017z"/><path id="_460764688" class="fil1" d="M2.253 3.216 6.04 7.002l-.019-.013-.019-.014-.019-.015-.019-.016-.019-.016-.019-.016-.019-.018-.02-.017-.019-.018-.02-.019-.02-.018-.02-.02-.02-.019-.021-.019-.02-.02-.022-.02-.022-.019-.021-.02-.023-.019-.022-.02-.023-.018-.023-.02-.024-.018-.024-.018-.025-.018-.025-.017-.025-.017-.026-.017-.027-.016-.026-.015-.028-.014-.028-.014-3.786-3.786.028.013.027.015.027.015.027.016.026.016.025.017.025.018.025.018.024.018.023.019.024.018.023.02.022.019.022.02.022.019.022.02.02.02.022.019.02.02.02.018.021.02.02.018.02.019.02.018.019.017.019.017.02.017.018.016.02.015.018.015.019.014z"/><path id="_460765408" class="fil1" d="m3.5 4.613 3.787 3.786v.011l-.001.012-.001.011v.012l-.002.011v.023l-.002.011v.012l-.001.011v.012l-.001.011-.001.012v.011l-.002.011v.023l-.002.012v.023l-.002.01v.024l-.002.011v.023l-.002.01v.023l-.001.012-.001.01v.012L3.478 4.977v-.011l.001-.012v-.01l.002-.012v-.023l.001-.011.001-.011v-.012l.001-.011.001-.011V4.84l.001-.011.001-.012v-.01l.002-.012v-.023l.002-.012V4.75l.001-.012v-.011l.001-.011.001-.012v-.011l.002-.012v-.023l.002-.011v-.011l.001-.012z"/><path id="_460765720" class="fil1" d="m3.479 4.977 3.786 3.786v.011l-.003.011-.004.01-.004.01-.005.01-.006.009-.007.008-.007.008-.009.006-.009.006-.01.005-.009.004-.01.004-.011.002h-.023L3.362 5.082h.023l.01-.003.01-.003.01-.004.01-.005.009-.006.008-.007.008-.007.007-.008.006-.01.005-.009.004-.01.004-.01.002-.011z"/><path id="_460765576" class="fil1" d="m3.362 5.081 3.786 3.787-.01-.001-.012-.003-.01-.003-.01-.004-.01-.006-.009-.006-.008-.006-3.786-3.787.008.007.009.006.01.005.01.005.01.003.01.002z"/><path id="_460765792" class="fil1" d="m2.851 2.013 3.786 3.786-.004-.004-.003-.004-.004-.004-.004-.004-.004-.004-.004-.004-.004-.004-.004-.004-.004-.004-.004-.004-.004-.003-.004-.004-.004-.004-.004-.004-.004-.004-.004-.004-.005-.003-.004-.004-.004-.004-3.786-3.786.004.003.004.004.004.004.004.004.005.004.004.004.004.003.004.004.004.004.004.004.004.004.004.004.004.004.004.004.004.004.003.004.004.004.004.004z"/><path id="_460765624" class="fil1" d="M2.775 1.939 6.56 5.725l-.004-.004L2.77 1.935z"/><path id="_460765384" class="fil1" d="m3.03 1.877 3.786 3.787.048.054.045.055.043.057.04.059.037.06.034.06.032.063.03.064.027.065.025.066.022.067.02.07.019.07.016.07.015.073.013.074.01.075.01.076.008.077.007.078.005.08.003.08.003.081.001.083v.168l-.002.086-.002.087-.003.087-.004.09-3.786-3.787.004-.089.003-.087.002-.087.002-.086v-.168l-.001-.083-.003-.081-.004-.08-.005-.08-.006-.079-.008-.077-.01-.076-.01-.075-.013-.073-.015-.073-.016-.071-.019-.07-.02-.069-.023-.067-.025-.067-.027-.065-.03-.063-.031-.063-.034-.06-.037-.06-.04-.059-.043-.057-.045-.055z"/><path id="_460765696" class="fil1" d="M3.528 4.132 7.315 7.92l-.001.014v.015l-.002.015v.014l-.001.015v.015l-.002.015v.014l-.001.015-.001.015-.001.015v.015l-.002.015v.015l-.001.015-.001.015-.001.015-.001.015V8.2l-.002.015v.015l-.002.015v.016l-.002.015v.015l-.001.015-.001.015-.001.016-.001.015-.001.015-.001.016-.001.015-3.786-3.786v-.016l.002-.015v-.015l.001-.016.001-.015.001-.015.001-.015.001-.016.001-.015.001-.015.001-.015V4.43l.002-.015V4.4l.002-.015V4.37l.001-.015.001-.015.001-.015V4.31l.002-.015V4.28l.001-.015.001-.015.001-.015v-.014l.002-.015V4.19l.001-.015v-.014l.002-.015z"/><path id="_460765456" class="fil1" d="m5.28 3.476 3.786 3.786-.028.014-.027.014-.027.016-.027.016-.026.016-.025.017-.025.017-.025.018-.024.019-.023.018-.024.02-.023.018-.022.02-.022.019-.022.02-.022.02-.02.019-.022.02-.02.019-.02.019-.021.019-.02.019-.02.018-.02.018-.019.018-.02.017-.018.017-.02.016-.018.015-.019.015-.019.014-.019.013-3.786-3.786.019-.013.019-.014.019-.015.019-.016.019-.016.019-.016.019-.018.02-.017.019-.018.02-.019.02-.018.02-.02.02-.019.02-.019.022-.02.021-.02.022-.019.021-.02.023-.019.022-.02L5 3.661l.023-.02.024-.018.024-.018.025-.018.025-.017.025-.017.026-.017.026-.016.027-.015.028-.014z"/><path id="_460765840" class="fil1" d="m3.672 4 3.786 3.787-.004.004-.005.004-.004.004-.005.004-.004.005-.005.004-.004.004-.004.004-.005.004-.004.004-.005.004-.004.004-.005.004-.004.004-.005.005-.004.004-.004.004-.005.004-.004.004-.005.004-.004.004-.005.004-.004.005-.005.004-.004.004-.005.004-.004.004-.005.004-.005.004-.004.004-.005.005-.004.004-3.787-3.787.005-.004.005-.004.004-.004.005-.004.004-.004.005-.004.004-.004.005-.005.004-.004.005-.004.004-.004.005-.004.004-.004.005-.004.004-.004.005-.005.004-.004.005-.004.004-.004.005-.004.004-.004.004-.004.005-.004.004-.004.005-.005.004-.004.005-.004.004-.004.004-.004.005-.004.004-.004z"/><path id="_460765264" class="fil1" d="M4.573 4.034 8.36 7.82l-.042.028-.041.026-.041.023-.04.021-.04.019-.038.016-.037.014-.037.012-.035.01-.035.009-.034.006-.033.004-.032.002-.031.001-.03-.001-.03-.003-.027-.004-.028-.006-.026-.007-.025-.009-.024-.01-.023-.011-.022-.013-.022-.014-.02-.015-.018-.016-.018-.017L3.744 4.1l.017.017.02.016.02.015.02.014.022.012.023.012.025.01.025.009.026.007.027.006.028.004.03.003h.06l.033-.002.033-.005.034-.006.034-.008.036-.01.037-.012.037-.014.038-.017.04-.018.04-.021.04-.023.042-.026z"/><path id="_457195328" class="fil1" d="M2.923 1.774c.599.538.652 1.327.61 2.278l.115-.103c-.16-.417.275-1.097 1.632-.473-.302.142-.507.42-.707.558-.456.313-.778.197-.901-.033l-.144.131c-.007.156-.017.317-.027.48l-.022.365a.111.111 0 0 1-.222-.012L3.28 4.6l.01-.173c.024-.394.042-.763.025-1.099-.055-.048-.107-.097-.159-.145a.43.43 0 0 1-.057.082c-.151.17-.447.223-.845-.05-.2-.137-.404-.415-.706-.557l1.43-.126c.22.15.276.403.201.599l.131.116c-.033-.47-.141-.871-.41-1.181a1.422 1.422 0 0 0-.124-.127.111.111 0 0 1 .148-.165z"/></g></g><path class="fil2" d="M3.413 0a3.413 3.413 0 1 1 0 6.827 3.413 3.413 0 0 1 0-6.827z"/><path class="fil3" d="M1.547 2.658c.302.142.507.42.706.558 1.268.87 1.504-1.575-.706-.558z"/><path class="fil4" d="M3.38 3.308c-.269-.23-.503-.488-.92-.576-.168-.036-.205-.055-.383-.054h.002c-.073.008-.1.02-.167.042.056-.005.017 0 .083-.014.16-.034.304.02.458.057.435.105.638.38.937.63l-.01-.085z"/><path class="fil4" d="M2.59 2.77a1.093 1.093 0 0 0-.084.012c-.143.026-.178.023-.317.081h.001c-.054.03-.072.048-.116.087.042-.023.013-.005.06-.038.114-.079.244-.083.376-.104a1.1 1.1 0 0 1 .085-.01.04.04 0 0 1-.005-.028zM2.896 2.91h-.004c-.17.032-.212.028-.376.097h.002c-.065.034-.085.057-.138.102.05-.026.015-.006.071-.044.135-.093.289-.099.445-.123H2.9a.047.047 0 0 1-.004-.032zM2.413 2.75a.585.585 0 0 1-.039-.04c-.063-.067-.086-.08-.12-.156v.001c-.008-.031-.002-.044.002-.074.007.024.004.007.005.036.003.071.076.126.137.188a.625.625 0 0 0 .042.038.06.06 0 0 0-.027.006zM2.8 2.884l-.002-.002c-.088-.096-.118-.114-.175-.223h.001c-.016-.045-.013-.065-.013-.11.013.036.005.01.013.054.019.105.116.182.2.268l.003.002a.052.052 0 0 0-.026.011z"/><path class="fil3" d="M5.28 3.476c-.302.142-.507.42-.707.558-1.267.87-1.503-1.574.707-.558z"/><path class="fil4" d="M3.446 4.127c.27-.23.504-.488.92-.577.169-.035.206-.055.384-.054h-.002c.073.008.1.021.166.043-.056-.006-.016 0-.083-.014-.16-.035-.303.019-.458.056-.434.105-.638.381-.936.631l.01-.085z"/><path class="fil4" d="m4.237 3.588.084.012c.143.027.178.023.317.082h-.001c.054.028.071.048.116.086-.042-.022-.013-.005-.06-.038-.114-.078-.244-.083-.377-.104a1.098 1.098 0 0 0-.085-.01.04.04 0 0 0 .006-.028zM3.93 3.728l.005.001c.17.031.211.027.376.097l-.002-.001c.064.035.085.057.138.103-.05-.027-.016-.006-.072-.045-.135-.093-.288-.098-.445-.123h-.003a.046.046 0 0 0 .004-.032zM4.413 3.567a.585.585 0 0 0 .04-.038c.062-.067.086-.081.12-.156.008-.03.002-.044-.003-.074-.006.024-.003.007-.004.036-.004.071-.076.127-.137.188a.624.624 0 0 1-.042.038c.01 0 .02.003.026.006zM4.026 3.703l.002-.003c.088-.095.12-.114.175-.223v.001c.016-.046.012-.066.013-.11-.013.035-.006.01-.013.053-.02.105-.116.182-.201.268L4 3.691c.01.002.02.006.026.012z"/><path class="fil2" d="M2.856 1.83c.742.668.594 1.78.52 3.115"/><path d="M2.923 1.774a.111.111 0 0 0-.148.165c.633.57.575 1.518.504 2.66l-.022.366a.111.111 0 0 0 .222.012l.022-.364c.074-1.202.135-2.198-.578-2.84z" style="fill:#689f38;fill-rule:nonzero"/></g></svg>
